<svg width="60.09" height="60.09" viewBox="0 0 60.09 60.09" xmlns="http://www.w3.org/2000/svg" xmlns:xlink="http://www.w3.org/1999/xlink" id="图层_1" xml:space="preserve" overflow="hidden"><rect x="0" y="0" width="60.09" height="60.09" stroke="#E23138" stroke-miterlimit="10" fill="#E23138"/><g><rect x="5.892" y="16.125" width="49.923" height="25.479" fill="none"/><path d="M18.288 26.193C18.344 26.377 18.356 26.533 18.324 26.661L16.908 34.101 13.62 34.221 14.844 27.764 11.556 27.86 10.26 34.339 6.972 34.507 5.34 34.627C5.756 34.548 6.128 34.455 6.456 34.352 6.784 34.248 6.98 34.132 7.044 34.003L9.588 21.283C9.444 21.075 8.868 20.947 7.86 20.899L9.684 20.851 12.108 20.731C12.188 20.731 12.28 20.755 12.384 20.803 12.488 20.851 12.58 20.907 12.66 20.971 12.708 21.051 12.748 21.151 12.78 21.271 12.812 21.391 12.82 21.499 12.804 21.595L12.012 25.531 17.22 25.363C17.348 25.363 17.504 25.403 17.688 25.483 17.872 25.563 18.004 25.651 18.084 25.747 18.164 25.861 18.231 26.009 18.288 26.193Z" fill="#FFFFFF"/><path d="M21.036 25.653 24.348 25.509 22.404 34.101 19.116 34.245 17.508 34.341C18.452 34.182 19.02 33.982 19.212 33.741L21.036 25.653ZM24.792 22.041C24.832 22.177 24.836 22.293 24.804 22.389L24.492 24.141 21.18 24.261 21.612 22.005C21.564 21.893 21.396 21.805 21.108 21.741 20.82 21.677 20.484 21.637 20.1 21.621L21.708 21.549 24.036 21.453C24.132 21.453 24.244 21.481 24.372 21.537 24.5 21.593 24.588 21.661 24.636 21.741 24.699 21.805 24.751 21.905 24.792 22.041Z" fill="#FFFFFF"/><path d="M29.795 38.062 26.267 38.206 24.563 38.326C24.995 38.23 25.407 38.098 25.799 37.93 26.191 37.762 26.491 37.575 26.699 37.367L28.691 34.079 26.099 26.519C26.018 26.343 25.823 26.187 25.511 26.051 25.199 25.915 24.851 25.807 24.467 25.727L28.403 25.607C28.691 25.591 28.911 25.628 29.063 25.715 29.215 25.803 29.323 25.967 29.387 26.207L30.611 30.863 33.756 25.631 37.283 25.511 29.795 38.062Z" fill="#FFFFFF"/><path d="M39.875 25.653 43.187 25.509 41.244 34.101 37.956 34.245 36.348 34.341C37.292 34.182 37.861 33.982 38.052 33.741L39.875 25.653ZM43.631 22.041C43.671 22.177 43.675 22.293 43.643 22.389L43.331 24.141 40.018 24.261 40.451 22.005C40.403 21.893 40.235 21.805 39.947 21.741 39.659 21.677 39.323 21.637 38.939 21.621L40.546 21.549 42.874 21.453C42.97 21.453 43.082 21.481 43.21 21.537 43.338 21.593 43.426 21.661 43.474 21.741 43.539 21.805 43.591 21.905 43.631 22.041Z" fill="#FFFFFF"/><path d="M55.031 25.785C55.295 26.001 55.427 26.309 55.427 26.709 55.427 26.805 55.411 26.949 55.379 27.141L53.987 34.101 44.003 34.46 42.371 34.532C42.787 34.469 43.159 34.385 43.487 34.28 43.814 34.176 44.018 34.06 44.098 33.932L45.73 26.324C45.634 26.164 45.13 26.012 44.218 25.868L45.85 25.82 53.962 25.508C54.41 25.478 54.767 25.569 55.031 25.785ZM51.947 27.885 48.682 27.981 47.77 32.037 51.13 31.917 51.947 27.885Z" fill="#FFFFFF"/></g><g></g><g></g><g></g><g></g><g></g><g></g></svg>